<svg width="171" height="40" viewBox="0 0 171 40" fill="none" xmlns="http://www.w3.org/2000/svg">
<path fill-rule="evenodd" clip-rule="evenodd" d="M7.5 10C7.5 8.61929 8.61929 7.5 10 7.5H13.75C15.1307 7.5 16.25 8.61929 16.25 10V30C16.25 31.3807 15.1307 32.5 13.75 32.5H10C8.61929 32.5 7.5 31.3807 7.5 30V10ZM13.75 10H10V30H13.75V10Z" fill="#00B37E"/>
<path fill-rule="evenodd" clip-rule="evenodd" d="M23.75 10C23.75 8.61929 24.8693 7.5 26.25 7.5H30C31.3807 7.5 32.5 8.61929 32.5 10V30C32.5 31.3807 31.3807 32.5 30 32.5H26.25C24.8693 32.5 23.75 31.3807 23.75 30V10ZM30 10H26.25V30H30V10Z" fill="#00B37E"/>
<path fill-rule="evenodd" clip-rule="evenodd" d="M30 12.5C30 11.8096 30.5596 11.25 31.25 11.25H35C35.663 11.25 36.2989 11.5134 36.7678 11.9822C37.2366 12.4511 37.5 13.087 37.5 13.75V26.25C37.5 26.913 37.2366 27.5489 36.7678 28.0178C36.2989 28.4866 35.663 28.75 35 28.75H31.25C30.5596 28.75 30 28.1904 30 27.5C30 26.8096 30.5596 26.25 31.25 26.25H35L35 13.75L31.25 13.75C30.5596 13.75 30 13.1904 30 12.5Z" fill="#00B37E"/>
<path fill-rule="evenodd" clip-rule="evenodd" d="M3.23223 11.9822C3.70107 11.5134 4.33696 11.25 5 11.25H8.75C9.44036 11.25 10 11.8096 10 12.5C10 13.1904 9.44036 13.75 8.75 13.75L5 13.75V26.25H8.75C9.44036 26.25 10 26.8096 10 27.5C10 28.1904 9.44036 28.75 8.75 28.75H5C4.33696 28.75 3.70108 28.4866 3.23223 28.0178C2.76339 27.5489 2.5 26.913 2.5 26.25V13.75C2.5 13.087 2.76339 12.4511 3.23223 11.9822Z" fill="#00B37E"/>
<path fill-rule="evenodd" clip-rule="evenodd" d="M13.75 20C13.75 19.3096 14.3096 18.75 15 18.75H25C25.6904 18.75 26.25 19.3096 26.25 20C26.25 20.6904 25.6904 21.25 25 21.25H15C14.3096 21.25 13.75 20.6904 13.75 20Z" fill="#00B37E"/>
<path fill-rule="evenodd" clip-rule="evenodd" d="M35 20C35 19.3096 35.5596 18.75 36.25 18.75H38.75C39.4404 18.75 40 19.3096 40 20C40 20.6904 39.4404 21.25 38.75 21.25H36.25C35.5596 21.25 35 20.6904 35 20Z" fill="#00B37E"/>
<path fill-rule="evenodd" clip-rule="evenodd" d="M0 20C0 19.3096 0.559644 18.75 1.25 18.75H3.75C4.44036 18.75 5 19.3096 5 20C5 20.6904 4.44036 21.25 3.75 21.25H1.25C0.559644 21.25 0 20.6904 0 20Z" fill="#00B37E"/>
<path d="M58.2891 9.59375V29.5H54.1875V9.59375H58.2891ZM66.2188 18.0977V21.2969H57.168V18.0977H66.2188ZM67.1758 9.59375V12.8066H57.168V9.59375H67.1758ZM76.8281 26.1641V19.5742C76.8281 19.1003 76.7507 18.6947 76.5957 18.3574C76.4408 18.0111 76.1992 17.7422 75.8711 17.5508C75.5521 17.3594 75.1374 17.2637 74.627 17.2637C74.1895 17.2637 73.8112 17.3411 73.4922 17.4961C73.1732 17.6419 72.9271 17.8561 72.7539 18.1387C72.5807 18.4121 72.4941 18.7357 72.4941 19.1094H68.5566C68.5566 18.4805 68.7025 17.8835 68.9941 17.3184C69.2858 16.7533 69.7096 16.2565 70.2656 15.8281C70.8216 15.3906 71.4824 15.0488 72.248 14.8027C73.0228 14.5566 73.8887 14.4336 74.8457 14.4336C75.9941 14.4336 77.015 14.625 77.9082 15.0078C78.8014 15.3906 79.5033 15.9648 80.0137 16.7305C80.5332 17.4961 80.793 18.4531 80.793 19.6016V25.9316C80.793 26.7428 80.8431 27.4082 80.9434 27.9277C81.0436 28.4382 81.1895 28.8848 81.3809 29.2676V29.5H77.4023C77.2109 29.099 77.0651 28.5977 76.9648 27.9961C76.8737 27.3854 76.8281 26.7747 76.8281 26.1641ZM77.3477 20.4902L77.375 22.7188H75.1738C74.6543 22.7188 74.2031 22.778 73.8203 22.8965C73.4375 23.015 73.123 23.1836 72.877 23.4023C72.6309 23.612 72.4486 23.8581 72.3301 24.1406C72.2207 24.4232 72.166 24.7331 72.166 25.0703C72.166 25.4076 72.2435 25.7129 72.3984 25.9863C72.5534 26.2507 72.7767 26.4603 73.0684 26.6152C73.36 26.7611 73.7018 26.834 74.0938 26.834C74.6862 26.834 75.2012 26.7155 75.6387 26.4785C76.0762 26.2415 76.4134 25.9499 76.6504 25.6035C76.8965 25.2572 77.0241 24.929 77.0332 24.6191L78.0723 26.2871C77.9264 26.6608 77.7259 27.0482 77.4707 27.4492C77.2246 27.8503 76.9102 28.2285 76.5273 28.584C76.1445 28.9303 75.6842 29.2174 75.1465 29.4453C74.6087 29.6641 73.9707 29.7734 73.2324 29.7734C72.2936 29.7734 71.4414 29.5866 70.6758 29.2129C69.9193 28.8301 69.3177 28.306 68.8711 27.6406C68.4336 26.9661 68.2148 26.2005 68.2148 25.3438C68.2148 24.569 68.3607 23.8809 68.6523 23.2793C68.944 22.6777 69.3724 22.1719 69.9375 21.7617C70.5117 21.3424 71.2272 21.028 72.084 20.8184C72.9408 20.5996 73.9342 20.4902 75.0645 20.4902H77.3477ZM91.8262 25.4121C91.8262 25.1296 91.7441 24.8743 91.5801 24.6465C91.416 24.4186 91.1107 24.209 90.6641 24.0176C90.2266 23.8171 89.5931 23.6348 88.7637 23.4707C88.0163 23.3066 87.319 23.1016 86.6719 22.8555C86.0339 22.6003 85.4779 22.2949 85.0039 21.9395C84.5391 21.584 84.1745 21.1647 83.9102 20.6816C83.6458 20.1895 83.5137 19.6289 83.5137 19C83.5137 18.3802 83.6458 17.7969 83.9102 17.25C84.1836 16.7031 84.571 16.2201 85.0723 15.8008C85.5827 15.3724 86.2025 15.0397 86.9316 14.8027C87.6699 14.5566 88.4993 14.4336 89.4199 14.4336C90.7051 14.4336 91.8079 14.6387 92.7285 15.0488C93.6582 15.459 94.3691 16.0241 94.8613 16.7441C95.3626 17.4551 95.6133 18.2663 95.6133 19.1777H91.6758C91.6758 18.7949 91.5938 18.4531 91.4297 18.1523C91.2747 17.8424 91.0286 17.6009 90.6914 17.4277C90.3633 17.2454 89.9349 17.1543 89.4062 17.1543C88.9688 17.1543 88.5905 17.2318 88.2715 17.3867C87.9525 17.5326 87.7064 17.7331 87.5332 17.9883C87.3691 18.2344 87.2871 18.5078 87.2871 18.8086C87.2871 19.0365 87.3327 19.2415 87.4238 19.4238C87.5241 19.597 87.6836 19.7565 87.9023 19.9023C88.1211 20.0482 88.4036 20.1849 88.75 20.3125C89.1055 20.431 89.543 20.5404 90.0625 20.6406C91.1289 20.8594 92.0814 21.1465 92.9199 21.502C93.7585 21.8483 94.4238 22.3223 94.916 22.9238C95.4082 23.5163 95.6543 24.2956 95.6543 25.2617C95.6543 25.918 95.5085 26.5195 95.2168 27.0664C94.9251 27.6133 94.5059 28.0918 93.959 28.502C93.4121 28.903 92.7559 29.2174 91.9902 29.4453C91.2337 29.6641 90.3815 29.7734 89.4336 29.7734C88.0573 29.7734 86.8906 29.5273 85.9336 29.0352C84.9857 28.543 84.2656 27.9186 83.7734 27.1621C83.2904 26.3965 83.0488 25.6126 83.0488 24.8105H86.7812C86.7995 25.3483 86.9362 25.7812 87.1914 26.1094C87.4557 26.4375 87.7884 26.6745 88.1895 26.8203C88.5996 26.9661 89.0417 27.0391 89.5156 27.0391C90.026 27.0391 90.4499 26.9707 90.7871 26.834C91.1243 26.6882 91.3796 26.4967 91.5527 26.2598C91.735 26.0137 91.8262 25.7311 91.8262 25.4121ZM105.457 14.707V17.4961H96.8438V14.707H105.457ZM98.9766 11.0566H102.914V25.043C102.914 25.4714 102.969 25.7995 103.078 26.0273C103.197 26.2552 103.37 26.4147 103.598 26.5059C103.826 26.5879 104.113 26.6289 104.459 26.6289C104.705 26.6289 104.924 26.6198 105.115 26.6016C105.316 26.5742 105.484 26.5469 105.621 26.5195L105.635 29.418C105.298 29.5273 104.933 29.6139 104.541 29.6777C104.149 29.7415 103.716 29.7734 103.242 29.7734C102.376 29.7734 101.62 29.6322 100.973 29.3496C100.335 29.0579 99.8424 28.5931 99.4961 27.9551C99.1497 27.3171 98.9766 26.4785 98.9766 25.4395V11.0566ZM130.695 19.0957V26.9844C130.385 27.3581 129.907 27.7637 129.26 28.2012C128.613 28.6296 127.779 28.9987 126.758 29.3086C125.737 29.6185 124.502 29.7734 123.053 29.7734C121.768 29.7734 120.596 29.5638 119.539 29.1445C118.482 28.7161 117.57 28.0918 116.805 27.2715C116.048 26.4512 115.465 25.4486 115.055 24.2637C114.645 23.0697 114.439 21.707 114.439 20.1758V18.9316C114.439 17.4004 114.635 16.0378 115.027 14.8438C115.428 13.6497 115.998 12.6426 116.736 11.8223C117.475 11.002 118.354 10.3776 119.375 9.94922C120.396 9.52083 121.531 9.30664 122.779 9.30664C124.511 9.30664 125.933 9.58919 127.045 10.1543C128.157 10.7103 129.005 11.485 129.588 12.4785C130.18 13.4629 130.545 14.5931 130.682 15.8691H126.703C126.603 15.1947 126.411 14.6068 126.129 14.1055C125.846 13.6042 125.441 13.2122 124.912 12.9297C124.393 12.6471 123.718 12.5059 122.889 12.5059C122.205 12.5059 121.594 12.6471 121.057 12.9297C120.528 13.2031 120.081 13.6087 119.717 14.1465C119.352 14.6842 119.074 15.3496 118.883 16.1426C118.691 16.9355 118.596 17.8561 118.596 18.9043V20.1758C118.596 21.2148 118.696 22.1354 118.896 22.9375C119.097 23.7305 119.393 24.4004 119.785 24.9473C120.186 25.485 120.678 25.8906 121.262 26.1641C121.845 26.4375 122.524 26.5742 123.299 26.5742C123.946 26.5742 124.484 26.5195 124.912 26.4102C125.35 26.3008 125.701 26.1686 125.965 26.0137C126.238 25.8496 126.448 25.6947 126.594 25.5488V22.0215H122.848V19.0957H130.695ZM138.146 27.832L142.07 14.707H146.295L140.348 31.7285C140.22 32.1022 140.047 32.5033 139.828 32.9316C139.618 33.36 139.331 33.7656 138.967 34.1484C138.611 34.5404 138.16 34.8594 137.613 35.1055C137.076 35.3516 136.415 35.4746 135.631 35.4746C135.257 35.4746 134.952 35.4518 134.715 35.4062C134.478 35.3607 134.195 35.2969 133.867 35.2148V32.3301C133.967 32.3301 134.072 32.3301 134.182 32.3301C134.291 32.3392 134.396 32.3438 134.496 32.3438C135.016 32.3438 135.439 32.2845 135.768 32.166C136.096 32.0475 136.36 31.8652 136.561 31.6191C136.761 31.3822 136.921 31.0723 137.039 30.6895L138.146 27.832ZM136.506 14.707L139.719 25.4258L140.279 29.5957L137.6 29.8828L132.281 14.707H136.506ZM151.805 17.7695V29.5H147.854V14.707H151.559L151.805 17.7695ZM151.258 21.584H150.164C150.164 20.554 150.287 19.6061 150.533 18.7402C150.788 17.8652 151.158 17.1087 151.641 16.4707C152.133 15.8236 152.739 15.3223 153.459 14.9668C154.179 14.6113 155.013 14.4336 155.961 14.4336C156.617 14.4336 157.219 14.5339 157.766 14.7344C158.312 14.9258 158.782 15.2311 159.174 15.6504C159.575 16.0605 159.885 16.5983 160.104 17.2637C160.322 17.9199 160.432 18.7083 160.432 19.6289V29.5H156.494V20.0664C156.494 19.3919 156.403 18.8724 156.221 18.5078C156.038 18.1432 155.779 17.888 155.441 17.7422C155.113 17.5964 154.717 17.5234 154.252 17.5234C153.742 17.5234 153.295 17.6283 152.912 17.8379C152.538 18.0475 152.229 18.3392 151.982 18.7129C151.736 19.0775 151.554 19.5059 151.436 19.998C151.317 20.4902 151.258 21.0189 151.258 21.584ZM160.062 21.1328L158.654 21.3105C158.654 20.3444 158.773 19.4466 159.01 18.6172C159.256 17.7878 159.616 17.0586 160.09 16.4297C160.573 15.8008 161.17 15.3132 161.881 14.9668C162.592 14.6113 163.412 14.4336 164.342 14.4336C165.053 14.4336 165.7 14.5384 166.283 14.748C166.867 14.9486 167.363 15.2721 167.773 15.7188C168.193 16.1562 168.512 16.7305 168.73 17.4414C168.958 18.1523 169.072 19.0228 169.072 20.0527V29.5H165.121V20.0527C165.121 19.3691 165.03 18.8496 164.848 18.4941C164.674 18.1296 164.419 17.8789 164.082 17.7422C163.754 17.5964 163.362 17.5234 162.906 17.5234C162.432 17.5234 162.018 17.6191 161.662 17.8105C161.307 17.9928 161.01 18.248 160.773 18.5762C160.536 18.9043 160.359 19.2871 160.24 19.7246C160.122 20.153 160.062 20.6224 160.062 21.1328Z" fill="white"/>
</svg>
